<svg width="311" height="226" viewBox="0 0 311 226" fill="none" xmlns="http://www.w3.org/2000/svg">
<g id="linker-logo3 1">
<path id="Vector" d="M138.054 222.997C129.086 221.519 120.228 219.677 112.37 214.76C109.34 212.864 106.756 213.277 103.614 215.058C82.1283 227.238 60.2168 228.91 37.5548 217.876C18.7301 208.71 5.94938 193.837 1.97633 174.001C-2.12778 153.51 -0.512835 132.182 14.2406 115.416C28.7205 98.9605 44.7777 83.8877 60.2284 68.293C75.2376 53.1439 90.5368 38.2782 105.374 22.964C119.953 7.91637 137.524 1.31535 158.349 0.695053C167.298 0.428513 175.861 1.23773 184.363 3.11504C189.085 4.15768 193.593 6.60466 197.901 8.96143C201.943 11.1732 205.327 10.7659 209.055 8.39931C217.075 3.30836 226.028 1.04373 235.434 0.996399C242.312 0.961777 249.408 0.660919 256.011 2.18716C262.64 3.71919 269.023 6.91544 275.088 10.1737C292.925 19.7553 303.746 35.4476 308.481 54.4302C313.001 72.5492 309.993 90.4293 299.96 106.723C291.646 120.225 279.393 130.136 268.566 141.318C253.642 156.731 238.477 171.93 222.968 186.753C213.621 195.687 203.855 204.313 193.475 211.993C185.12 218.174 174.88 220.897 164.051 222.605C154.985 222.517 146.52 222.757 138.054 222.997ZM188.868 197.341C191.359 195.454 194.054 193.78 196.294 191.631C199.458 188.595 202.156 185.076 205.282 181.997C214.301 173.112 223.546 164.455 232.492 155.5C242.159 145.823 251.478 135.801 261.156 126.137C268.64 118.664 276.452 111.52 284.091 104.202C284.796 103.527 285.41 102.708 285.893 101.857C290.039 94.5548 293.574 87.3056 294.772 78.559C295.874 70.515 296.562 62.9673 293.749 55.3445C290.741 47.1936 286.803 39.8265 280.685 33.2218C270.052 21.7431 257.401 15.5606 242.003 15.0018C230.63 14.589 220.285 18.3498 210.623 24.1368C206.42 26.6541 202.286 27.9206 197.616 24.9111C182.365 15.0826 165.597 12.9514 148.092 16.1305C136.188 18.2922 125.454 23.4775 116.819 32.0076C90.262 58.2413 63.9042 84.6769 37.5611 111.125C32.9006 115.805 28.3291 120.655 24.3356 125.898C17.0868 135.415 14.6974 146.276 15.0047 158.328C15.5629 180.216 25.6612 195.997 44.7458 205.37C66.6639 216.134 88.8689 210.784 105.83 194.408C112.639 187.833 118.757 180.548 125.463 173.861C135.098 164.255 145.214 155.122 154.646 145.327C158.36 141.47 161.108 143.158 164.147 145.216C167.152 147.25 167.845 150.264 165.989 153.435C164.83 155.416 163.355 157.278 161.74 158.915C154.951 165.795 148.049 172.562 141.203 179.386C134.888 185.679 128.578 191.978 122.296 198.305C120.575 200.039 118.532 202.485 122.287 203.587C130.804 206.088 139.474 209.48 148.153 209.698C162.467 210.059 176.401 206.779 188.868 197.341Z" fill="#2997DA"/>
<path id="Vector_2" d="M183.593 33.0668C200.563 40.8162 211.7 53.0991 216.939 70.8064C221.403 85.893 219.1 100.168 211.12 113.104C206.24 121.015 199.283 127.677 193.018 134.685C190.13 137.916 186.775 137.806 183.384 134.821C179.87 131.728 180.296 128.361 182.526 125.08C183.999 122.911 186.097 121.128 188.069 119.343C197.551 110.765 203.83 100.296 204.634 87.4855C205.221 78.1334 202.668 69.3397 196.914 61.3978C190.9 53.097 183.272 47.4145 173.471 45.2861C159.287 42.2059 146.002 43.6069 135.05 54.8057C121.761 68.3948 107.974 81.4991 94.7355 95.1365C85.3392 104.816 80.4385 116.87 78.0765 130.069C74.4108 150.553 80.7881 168.371 92.5517 184.679C96.7998 190.569 97.1834 193.102 92.931 196.51C89.4152 199.329 85.3748 197.907 81.3222 193.187C70.1231 180.145 65.3459 164.904 63.9129 147.972C62.5572 131.952 64.4532 116.468 72.2242 102.699C78.2172 92.0807 86.5051 82.628 94.5588 73.3385C102.49 64.19 111.368 55.8567 119.91 47.2444C128.374 38.7108 138.813 33.4716 150.189 30.2041C153.411 29.2787 157.194 30.5045 160.594 29.958C168.499 28.6871 175.835 30.8106 183.593 33.0668Z" fill="#2997DA"/>
<path id="Vector_3" d="M169.579 175.639C180.018 167.913 190.114 160.432 197.346 149.683C199.661 146.241 204.118 144.317 206.905 141.101C212.755 134.351 218.709 127.574 223.603 120.139C232.125 107.191 234.337 92.382 232.796 77.2875C231.644 65.995 227.341 55.5489 220.523 46.2238C218.554 43.5297 217.006 40.3132 216.121 37.1004C215.25 33.9411 216.103 29.8998 219.634 29.4304C222.388 29.0644 226.494 30.5223 228.277 32.6279C237.306 43.2892 243.457 55.6083 245.89 69.4296C249.671 90.9072 246.658 111.678 234.825 129.965C227.908 140.656 218.399 149.757 209.529 159.071C201.179 167.839 192.555 176.445 183.295 184.222C171.348 194.256 156.921 196.343 141.808 194.33C138.111 193.838 138.062 191.489 140.169 189.029C144.255 184.259 148.555 180.518 155.722 180.383C160.256 180.298 164.737 177.42 169.579 175.639Z" fill="#2997DA"/>
<path id="Vector_4" d="M92.9062 131.038C94.7963 118.678 100.473 108.744 108.913 100.318C112.817 96.4201 116.711 92.4521 121.029 89.0485C124.587 86.2437 128.236 88.1127 130.615 91.1129C133.172 94.3383 131.891 97.5195 129.144 100.407C123.789 106.035 118.26 111.559 113.479 117.656C102.59 131.543 103.655 151.657 113.762 165.787C119.171 173.347 117.977 177.594 108.948 181.862C94.6914 167.938 89.3782 151.141 92.9062 131.038Z" fill="#253741"/>
</g>
</svg>
